<svg width="217" height="62" viewBox="0 0 217 62" fill="none" xmlns="http://www.w3.org/2000/svg">
<rect width="217" height="62" rx="8" fill="#FFC700"/>
<path d="M30.9937 39.3C31.9803 39.3 32.9037 39.1333 33.7637 38.8C34.6237 38.4667 35.317 37.9667 35.8437 37.3C36.377 36.6333 36.6437 35.8033 36.6437 34.81C36.6437 34.0967 36.5103 33.5067 36.2437 33.04C35.9837 32.5667 35.647 32.1867 35.2337 31.9C34.827 31.6133 34.4037 31.39 33.9637 31.23C33.5303 31.07 33.137 30.9433 32.7837 30.85L30.2037 30.13C29.8837 30.0433 29.5637 29.9367 29.2437 29.81C28.9237 29.6767 28.657 29.5 28.4437 29.28C28.2303 29.0533 28.1237 28.7633 28.1237 28.41C28.1237 28.0367 28.247 27.71 28.4937 27.43C28.747 27.15 29.077 26.9333 29.4837 26.78C29.897 26.6267 30.3437 26.5567 30.8237 26.57C31.5637 26.59 32.2303 26.8067 32.8237 27.22C33.417 27.6333 33.7903 28.22 33.9437 28.98L36.5337 28.53C36.2137 27.1967 35.557 26.1667 34.5637 25.44C33.5703 24.7067 32.3337 24.3333 30.8537 24.32C29.8803 24.3133 28.9937 24.47 28.1937 24.79C27.4003 25.1033 26.767 25.5733 26.2937 26.2C25.827 26.8267 25.5937 27.6033 25.5937 28.53C25.5937 29.1633 25.697 29.6967 25.9037 30.13C26.117 30.5567 26.387 30.9067 26.7137 31.18C27.047 31.4533 27.397 31.67 27.7637 31.83C28.137 31.99 28.4837 32.1167 28.8037 32.21L32.5237 33.31C33.5903 33.63 34.1237 34.1833 34.1237 34.97C34.1237 35.41 33.9803 35.7867 33.6937 36.1C33.4137 36.4067 33.047 36.64 32.5937 36.8C32.1403 36.96 31.657 37.04 31.1437 37.04C30.277 37.04 29.5103 36.8067 28.8437 36.34C28.1837 35.8733 27.747 35.2133 27.5337 34.36L25.0337 34.74C25.187 35.68 25.5337 36.4933 26.0737 37.18C26.6203 37.86 27.3137 38.3833 28.1537 38.75C29.0003 39.1167 29.947 39.3 30.9937 39.3ZM45.1382 39V36.98C44.4649 37.08 43.8649 37.1067 43.3382 37.06C42.8115 37.0133 42.4282 36.79 42.1882 36.39C42.0615 36.1833 41.9915 35.9167 41.9782 35.59C41.9715 35.2567 41.9682 34.8767 41.9682 34.45V30.09H45.1382V28.2H41.9682V25.2H39.5682V28.2H37.6082V30.09H39.5682V34.59C39.5682 35.21 39.5749 35.7633 39.5882 36.25C39.6015 36.73 39.7315 37.2033 39.9782 37.67C40.2582 38.1833 40.6682 38.56 41.2082 38.8C41.7482 39.0333 42.3582 39.1567 43.0382 39.17C43.7249 39.19 44.4249 39.1333 45.1382 39ZM50.4805 39.3C51.3405 39.3 52.0705 39.16 52.6705 38.88C53.2772 38.5933 53.8105 38.15 54.2705 37.55V39H56.3805V32.37C56.3805 31.9033 56.3605 31.4733 56.3205 31.08C56.2805 30.68 56.1639 30.29 55.9705 29.91C55.6172 29.1967 55.0739 28.6833 54.3405 28.37C53.6139 28.0567 52.7705 27.9 51.8105 27.9C50.5439 27.9 49.5339 28.1767 48.7805 28.73C48.0272 29.2833 47.5172 30.0167 47.2505 30.93L49.4505 31.62C49.6305 31.0667 49.9472 30.6767 50.4005 30.45C50.8539 30.2233 51.3239 30.11 51.8105 30.11C52.5439 30.11 53.0839 30.26 53.4305 30.56C53.7772 30.8533 53.9739 31.31 54.0205 31.93C53.0739 32.07 52.1939 32.2067 51.3805 32.34C50.5739 32.4667 49.8872 32.6233 49.3205 32.81C48.4672 33.1033 47.8439 33.52 47.4505 34.06C47.0572 34.5933 46.8605 35.2533 46.8605 36.04C46.8605 36.6333 46.9972 37.1767 47.2705 37.67C47.5505 38.1633 47.9605 38.56 48.5005 38.86C49.0405 39.1533 49.7005 39.3 50.4805 39.3ZM50.9605 37.38C50.3939 37.38 49.9605 37.25 49.6605 36.99C49.3672 36.73 49.2205 36.4033 49.2205 36.01C49.2205 35.6567 49.3339 35.37 49.5605 35.15C49.7939 34.93 50.1172 34.7433 50.5305 34.59C50.9105 34.4633 51.3672 34.3533 51.9005 34.26C52.4339 34.16 53.1305 34.0433 53.9905 33.91C53.9839 34.1633 53.9672 34.4467 53.9405 34.76C53.9139 35.0667 53.8505 35.3433 53.7505 35.59C53.6705 35.8367 53.5139 36.1 53.2805 36.38C53.0539 36.66 52.7472 36.8967 52.3605 37.09C51.9739 37.2833 51.5072 37.38 50.9605 37.38ZM58.984 39H61.404V33.51C61.404 32.8833 61.5173 32.3267 61.744 31.84C61.9773 31.3533 62.3407 30.9767 62.834 30.71C63.1673 30.5167 63.5407 30.4033 63.954 30.37C64.3673 30.33 64.7373 30.3567 65.064 30.45V28.2C64.5773 28.1267 64.0773 28.1367 63.564 28.23C63.0507 28.3167 62.594 28.4967 62.194 28.77C61.9673 28.91 61.764 29.08 61.584 29.28C61.404 29.4733 61.2473 29.69 61.114 29.93V28.2H58.984V39ZM73.3023 39V36.98C72.6289 37.08 72.0289 37.1067 71.5023 37.06C70.9756 37.0133 70.5923 36.79 70.3523 36.39C70.2256 36.1833 70.1556 35.9167 70.1423 35.59C70.1356 35.2567 70.1323 34.8767 70.1323 34.45V30.09H73.3023V28.2H70.1323V25.2H67.7323V28.2H65.7723V30.09H67.7323V34.59C67.7323 35.21 67.7389 35.7633 67.7523 36.25C67.7656 36.73 67.8956 37.2033 68.1423 37.67C68.4223 38.1833 68.8323 38.56 69.3723 38.8C69.9123 39.0333 70.5223 39.1567 71.2023 39.17C71.8889 39.19 72.5889 39.1333 73.3023 39ZM82.6485 39.3C83.5085 39.3 84.2385 39.16 84.8385 38.88C85.4452 38.5933 85.9785 38.15 86.4385 37.55V39H88.5485V32.37C88.5485 31.9033 88.5285 31.4733 88.4885 31.08C88.4485 30.68 88.3318 30.29 88.1385 29.91C87.7852 29.1967 87.2418 28.6833 86.5085 28.37C85.7818 28.0567 84.9385 27.9 83.9785 27.9C82.7118 27.9 81.7018 28.1767 80.9485 28.73C80.1952 29.2833 79.6852 30.0167 79.4185 30.93L81.6185 31.62C81.7985 31.0667 82.1152 30.6767 82.5685 30.45C83.0218 30.2233 83.4918 30.11 83.9785 30.11C84.7118 30.11 85.2518 30.26 85.5985 30.56C85.9452 30.8533 86.1418 31.31 86.1885 31.93C85.2418 32.07 84.3618 32.2067 83.5485 32.34C82.7418 32.4667 82.0552 32.6233 81.4885 32.81C80.6352 33.1033 80.0118 33.52 79.6185 34.06C79.2252 34.5933 79.0285 35.2533 79.0285 36.04C79.0285 36.6333 79.1652 37.1767 79.4385 37.67C79.7185 38.1633 80.1285 38.56 80.6685 38.86C81.2085 39.1533 81.8685 39.3 82.6485 39.3ZM83.1285 37.38C82.5618 37.38 82.1285 37.25 81.8285 36.99C81.5352 36.73 81.3885 36.4033 81.3885 36.01C81.3885 35.6567 81.5018 35.37 81.7285 35.15C81.9618 34.93 82.2852 34.7433 82.6985 34.59C83.0785 34.4633 83.5352 34.3533 84.0685 34.26C84.6018 34.16 85.2985 34.0433 86.1585 33.91C86.1518 34.1633 86.1352 34.4467 86.1085 34.76C86.0818 35.0667 86.0185 35.3433 85.9185 35.59C85.8385 35.8367 85.6818 36.1 85.4485 36.38C85.2218 36.66 84.9152 36.8967 84.5285 37.09C84.1418 37.2833 83.6752 37.38 83.1285 37.38ZM101.096 39.3C102.489 39.3 103.686 39 104.686 38.4C105.686 37.7933 106.453 36.9633 106.986 35.91C107.526 34.8567 107.796 33.65 107.796 32.29C107.796 32.25 107.793 32.1267 107.786 31.92C107.779 31.7133 107.769 31.5567 107.756 31.45H102.656V33.34H105.196C105.009 34.58 104.576 35.51 103.896 36.13C103.216 36.7433 102.333 37.0433 101.246 37.03C99.7992 37.01 98.7125 36.5267 97.9859 35.58C97.2592 34.6333 96.8992 33.3733 96.9059 31.8C96.9125 30.7467 97.0759 29.8267 97.3959 29.04C97.7159 28.2533 98.1959 27.6433 98.8359 27.21C99.4759 26.7767 100.279 26.5667 101.246 26.58C102.199 26.5867 102.986 26.8433 103.606 27.35C104.233 27.8567 104.683 28.5367 104.956 29.39L107.416 29C107.049 27.52 106.346 26.3667 105.306 25.54C104.273 24.7133 102.869 24.3 101.096 24.3C99.8159 24.3 98.6659 24.5967 97.6459 25.19C96.6325 25.7833 95.8292 26.64 95.2359 27.76C94.6492 28.88 94.3559 30.2267 94.3559 31.8C94.3559 33.4 94.6559 34.76 95.2559 35.88C95.8625 36.9933 96.6759 37.8433 97.6959 38.43C98.7159 39.01 99.8492 39.3 101.096 39.3ZM109.804 39H112.224V33.51C112.224 32.8833 112.338 32.3267 112.564 31.84C112.798 31.3533 113.161 30.9767 113.654 30.71C113.988 30.5167 114.361 30.4033 114.774 30.37C115.188 30.33 115.558 30.3567 115.884 30.45V28.2C115.398 28.1267 114.898 28.1367 114.384 28.23C113.871 28.3167 113.414 28.4967 113.014 28.77C112.788 28.91 112.584 29.08 112.404 29.28C112.224 29.4733 112.068 29.69 111.934 29.93V28.2H109.804V39ZM122.367 39.3C123.447 39.3 124.391 39.06 125.197 38.58C126.004 38.0933 126.631 37.4233 127.077 36.57C127.531 35.71 127.757 34.72 127.757 33.6C127.757 32.4867 127.534 31.5033 127.087 30.65C126.641 29.79 126.014 29.1167 125.207 28.63C124.401 28.1433 123.454 27.9 122.367 27.9C121.307 27.9 120.374 28.14 119.567 28.62C118.761 29.1 118.131 29.7667 117.677 30.62C117.224 31.4733 116.997 32.4667 116.997 33.6C116.997 34.7133 117.217 35.7 117.657 36.56C118.104 37.4133 118.731 38.0833 119.537 38.57C120.344 39.0567 121.287 39.3 122.367 39.3ZM122.367 37.04C121.441 37.04 120.737 36.73 120.257 36.11C119.784 35.4833 119.547 34.6467 119.547 33.6C119.547 32.58 119.774 31.7533 120.227 31.12C120.687 30.48 121.401 30.16 122.367 30.16C123.314 30.16 124.024 30.4733 124.497 31.1C124.971 31.72 125.207 32.5533 125.207 33.6C125.207 34.6133 124.971 35.44 124.497 36.08C124.031 36.72 123.321 37.04 122.367 37.04ZM134.011 39.31C134.791 39.31 135.474 39.1767 136.061 38.91C136.654 38.6367 137.147 38.2667 137.541 37.8V39H139.671V28.2H137.251V33.75C137.251 34.6233 137.124 35.3 136.871 35.78C136.624 36.2533 136.307 36.5833 135.921 36.77C135.534 36.95 135.134 37.04 134.721 37.04C134.147 37.04 133.691 36.9167 133.351 36.67C133.011 36.4167 132.757 36.1 132.591 35.72C132.431 35.3333 132.324 34.9333 132.271 34.52C132.224 34.1067 132.201 33.7333 132.201 33.4V28.2H129.761V34.23C129.761 34.4833 129.781 34.82 129.821 35.24C129.867 35.66 129.964 36.1033 130.111 36.57C130.257 37.0367 130.484 37.48 130.791 37.9C131.097 38.3133 131.511 38.6533 132.031 38.92C132.557 39.18 133.217 39.31 134.011 39.31ZM142.46 43.8H144.89V38.45C145.257 38.7167 145.67 38.9233 146.13 39.07C146.597 39.2233 147.11 39.3 147.67 39.3C148.67 39.3 149.537 39.05 150.27 38.55C151.01 38.05 151.583 37.37 151.99 36.51C152.397 35.65 152.6 34.68 152.6 33.6C152.6 32.5067 152.393 31.53 151.98 30.67C151.573 29.81 150.993 29.1333 150.24 28.64C149.487 28.1467 148.6 27.9 147.58 27.9C146.967 27.9 146.41 27.9933 145.91 28.18C145.41 28.3667 144.97 28.6333 144.59 28.98V28.2H142.46V43.8ZM147.3 37.14C146.333 37.14 145.64 36.8133 145.22 36.16C144.8 35.5 144.59 34.6467 144.59 33.6C144.59 32.5467 144.797 31.6933 145.21 31.04C145.63 30.3867 146.3 30.06 147.22 30.06C147.867 30.06 148.397 30.22 148.81 30.54C149.23 30.8533 149.54 31.28 149.74 31.82C149.947 32.3533 150.05 32.9467 150.05 33.6C150.05 34.26 149.95 34.8567 149.75 35.39C149.557 35.9233 149.257 36.35 148.85 36.67C148.443 36.9833 147.927 37.14 147.3 37.14ZM158.808 39H165.098C166.518 39 167.595 38.6067 168.328 37.82C169.062 37.0333 169.428 36 169.428 34.72C169.428 33.9933 169.248 33.3333 168.888 32.74C168.535 32.1467 168.012 31.7033 167.318 31.41C167.765 31.1433 168.115 30.7667 168.368 30.28C168.628 29.7867 168.758 29.2133 168.758 28.56C168.758 27.9133 168.605 27.2867 168.298 26.68C167.998 26.0733 167.535 25.5767 166.908 25.19C166.288 24.7967 165.492 24.6 164.518 24.6H158.808V39ZM161.248 30.35V26.85H164.488C165.062 26.85 165.508 27.0167 165.828 27.35C166.148 27.6833 166.308 28.1 166.308 28.6C166.308 29.1733 166.132 29.61 165.778 29.91C165.432 30.2033 165.002 30.35 164.488 30.35H161.248ZM161.248 36.73V32.6H164.868C165.542 32.6 166.065 32.7967 166.438 33.19C166.812 33.5833 166.998 34.07 166.998 34.65C166.998 35.29 166.788 35.7967 166.368 36.17C165.955 36.5433 165.432 36.73 164.798 36.73H161.248ZM175.475 39.31C176.255 39.31 176.939 39.1767 177.525 38.91C178.119 38.6367 178.612 38.2667 179.005 37.8V39H181.135V28.2H178.715V33.75C178.715 34.6233 178.589 35.3 178.335 35.78C178.089 36.2533 177.772 36.5833 177.385 36.77C176.999 36.95 176.599 37.04 176.185 37.04C175.612 37.04 175.155 36.9167 174.815 36.67C174.475 36.4167 174.222 36.1 174.055 35.72C173.895 35.3333 173.789 34.9333 173.735 34.52C173.689 34.1067 173.665 33.7333 173.665 33.4V28.2H171.225V34.23C171.225 34.4833 171.245 34.82 171.285 35.24C171.332 35.66 171.429 36.1033 171.575 36.57C171.722 37.0367 171.949 37.48 172.255 37.9C172.562 38.3133 172.975 38.6533 173.495 38.92C174.022 39.18 174.682 39.31 175.475 39.31ZM185.365 43.8H187.625L193.645 28.2H191.235L188.305 35.93L185.285 28.2H182.775L187.145 38.92L185.365 43.8Z" fill="#0B0D17"/>
</svg>
