<svg width="240" height="62" viewBox="0 0 240 62" fill="none" xmlns="http://www.w3.org/2000/svg">
<rect width="240" height="62" rx="8" fill="black"/>
<path d="M31.4195 39H33.8295V33.97H37.2495L39.6895 39H42.4195L39.7595 33.54C40.5795 33.1733 41.1895 32.6167 41.5895 31.87C41.9895 31.1233 42.1895 30.2633 42.1895 29.29C42.1895 28.0967 41.8895 27.08 41.2895 26.24C40.6962 25.3933 39.7729 24.8733 38.5195 24.68C38.3329 24.6467 38.1295 24.6267 37.9095 24.62C37.6895 24.6067 37.5095 24.6 37.3695 24.6H31.4195V39ZM33.8295 31.72V26.86H37.2695C37.4029 26.86 37.5529 26.8667 37.7195 26.88C37.8862 26.8933 38.0395 26.9167 38.1795 26.95C38.5795 27.05 38.8929 27.23 39.1195 27.49C39.3529 27.7433 39.5162 28.03 39.6095 28.35C39.7095 28.67 39.7595 28.9833 39.7595 29.29C39.7595 29.5967 39.7095 29.91 39.6095 30.23C39.5162 30.55 39.3529 30.8367 39.1195 31.09C38.8929 31.3433 38.5795 31.52 38.1795 31.62C38.0395 31.66 37.8862 31.6867 37.7195 31.7C37.5529 31.7133 37.4029 31.72 37.2695 31.72H33.8295ZM49.5327 39.3C50.5727 39.3 51.5227 39.0333 52.3827 38.5C53.2493 37.96 53.8893 37.2 54.3027 36.22L51.9227 35.5C51.4427 36.5267 50.5993 37.04 49.3927 37.04C48.5727 37.04 47.926 36.8033 47.4527 36.33C46.9793 35.85 46.696 35.1633 46.6027 34.27H54.4227C54.516 32.97 54.3727 31.8433 53.9927 30.89C53.6127 29.9367 53.0293 29.2 52.2427 28.68C51.4627 28.16 50.5127 27.9 49.3927 27.9C48.3327 27.9 47.3993 28.14 46.5927 28.62C45.786 29.0933 45.156 29.7667 44.7027 30.64C44.2493 31.5133 44.0227 32.54 44.0227 33.72C44.0227 34.8133 44.2527 35.78 44.7127 36.62C45.1793 37.46 45.826 38.1167 46.6527 38.59C47.4793 39.0633 48.4393 39.3 49.5327 39.3ZM49.4927 30.01C50.2393 30.01 50.8127 30.2067 51.2127 30.6C51.6193 30.9867 51.876 31.6033 51.9827 32.45H46.6627C46.9493 30.8233 47.8927 30.01 49.4927 30.01ZM60.9839 39.3C61.5439 39.3 62.0539 39.2233 62.5139 39.07C62.9806 38.9233 63.3973 38.7167 63.7639 38.45V43.8H66.1939V28.2H64.0639V28.98C63.6839 28.6333 63.2439 28.3667 62.7439 28.18C62.2439 27.9933 61.6873 27.9 61.0739 27.9C60.0539 27.9 59.1673 28.1467 58.4139 28.64C57.6673 29.1333 57.0873 29.81 56.6739 30.67C56.2606 31.53 56.0539 32.5067 56.0539 33.6C56.0539 34.68 56.2573 35.65 56.6639 36.51C57.0706 37.37 57.6439 38.05 58.3839 38.55C59.1239 39.05 59.9906 39.3 60.9839 39.3ZM61.3539 37.14C60.7273 37.14 60.2106 36.9833 59.8039 36.67C59.3973 36.35 59.0939 35.9233 58.8939 35.39C58.7006 34.8567 58.6039 34.26 58.6039 33.6C58.6039 32.9467 58.7039 32.3533 58.9039 31.82C59.1106 31.28 59.4206 30.8533 59.8339 30.54C60.2539 30.22 60.7873 30.06 61.4339 30.06C62.3539 30.06 63.0206 30.3867 63.4339 31.04C63.8539 31.6933 64.0639 32.5467 64.0639 33.6C64.0639 34.6467 63.8539 35.5 63.4339 36.16C63.0206 36.8133 62.3273 37.14 61.3539 37.14ZM73.0477 39.31C73.8277 39.31 74.511 39.1767 75.0977 38.91C75.691 38.6367 76.1843 38.2667 76.5777 37.8V39H78.7077V28.2H76.2877V33.75C76.2877 34.6233 76.161 35.3 75.9077 35.78C75.661 36.2533 75.3443 36.5833 74.9577 36.77C74.571 36.95 74.171 37.04 73.7577 37.04C73.1843 37.04 72.7277 36.9167 72.3877 36.67C72.0477 36.4167 71.7943 36.1 71.6277 35.72C71.4677 35.3333 71.361 34.9333 71.3077 34.52C71.261 34.1067 71.2377 33.7333 71.2377 33.4V28.2H68.7977V34.23C68.7977 34.4833 68.8177 34.82 68.8577 35.24C68.9043 35.66 69.001 36.1033 69.1477 36.57C69.2943 37.0367 69.521 37.48 69.8277 37.9C70.1343 38.3133 70.5477 38.6533 71.0677 38.92C71.5943 39.18 72.2543 39.31 73.0477 39.31ZM86.4272 39.3C87.4672 39.3 88.4172 39.0333 89.2772 38.5C90.1439 37.96 90.7839 37.2 91.1972 36.22L88.8172 35.5C88.3372 36.5267 87.4939 37.04 86.2872 37.04C85.4672 37.04 84.8205 36.8033 84.3472 36.33C83.8739 35.85 83.5905 35.1633 83.4972 34.27H91.3172C91.4105 32.97 91.2672 31.8433 90.8872 30.89C90.5072 29.9367 89.9239 29.2 89.1372 28.68C88.3572 28.16 87.4072 27.9 86.2872 27.9C85.2272 27.9 84.2939 28.14 83.4872 28.62C82.6805 29.0933 82.0505 29.7667 81.5972 30.64C81.1439 31.5133 80.9172 32.54 80.9172 33.72C80.9172 34.8133 81.1472 35.78 81.6072 36.62C82.0739 37.46 82.7205 38.1167 83.5472 38.59C84.3739 39.0633 85.3339 39.3 86.4272 39.3ZM86.3872 30.01C87.1339 30.01 87.7072 30.2067 88.1072 30.6C88.5139 30.9867 88.7705 31.6033 88.8772 32.45H83.5572C83.8439 30.8233 84.7872 30.01 86.3872 30.01ZM97.7185 39.3C99.1118 39.3 100.202 38.99 100.988 38.37C101.782 37.75 102.178 36.8967 102.178 35.81C102.178 34.97 101.912 34.31 101.378 33.83C100.852 33.35 99.9418 32.9433 98.6485 32.61C97.8085 32.3967 97.1751 32.2167 96.7485 32.07C96.3285 31.9233 96.0485 31.7767 95.9085 31.63C95.7685 31.4833 95.6985 31.3067 95.6985 31.1C95.6985 30.74 95.8718 30.46 96.2185 30.26C96.5651 30.0533 97.0218 29.9633 97.5885 29.99C98.1751 30.0233 98.6451 30.1733 98.9985 30.44C99.3585 30.7067 99.5718 31.07 99.6385 31.53L102.098 31.09C101.965 30.1167 101.488 29.3433 100.668 28.77C99.8485 28.19 98.8085 27.9 97.5485 27.9C96.2618 27.9 95.2318 28.2 94.4585 28.8C93.6851 29.4 93.2985 30.2067 93.2985 31.22C93.2985 32.0267 93.5685 32.6633 94.1085 33.13C94.6551 33.5967 95.6051 34.0067 96.9585 34.36C97.7718 34.5733 98.3718 34.7533 98.7585 34.9C99.1518 35.04 99.4085 35.1833 99.5285 35.33C99.6485 35.4767 99.7085 35.6733 99.7085 35.92C99.7085 36.32 99.5485 36.6367 99.2285 36.87C98.9085 37.0967 98.4618 37.21 97.8885 37.21C97.2285 37.21 96.6785 37.0567 96.2385 36.75C95.8051 36.4433 95.5285 36.0233 95.4085 35.49L92.9485 35.87C93.1285 36.9567 93.6351 37.8 94.4685 38.4C95.3018 39 96.3851 39.3 97.7185 39.3ZM110.699 39V36.98C110.025 37.08 109.425 37.1067 108.899 37.06C108.372 37.0133 107.989 36.79 107.749 36.39C107.622 36.1833 107.552 35.9167 107.539 35.59C107.532 35.2567 107.529 34.8767 107.529 34.45V30.09H110.699V28.2H107.529V25.2H105.129V28.2H103.169V30.09H105.129V34.59C105.129 35.21 105.135 35.7633 105.149 36.25C105.162 36.73 105.292 37.2033 105.539 37.67C105.819 38.1833 106.229 38.56 106.769 38.8C107.309 39.0333 107.919 39.1567 108.599 39.17C109.285 39.19 109.985 39.1333 110.699 39ZM117.005 39H119.435V32.35C119.435 31.6767 119.618 31.13 119.985 30.71C120.358 30.29 120.852 30.08 121.465 30.08C122.098 30.08 122.598 30.29 122.965 30.71C123.332 31.13 123.515 31.7167 123.515 32.47V39H125.915V32.35C125.915 31.6367 126.108 31.08 126.495 30.68C126.888 30.28 127.375 30.08 127.955 30.08C128.575 30.08 129.068 30.29 129.435 30.71C129.808 31.1233 129.995 31.7 129.995 32.44V39H132.405V31.83C132.405 30.6567 132.085 29.7133 131.445 29C130.812 28.2867 129.898 27.93 128.705 27.93C128.005 27.93 127.365 28.0833 126.785 28.39C126.205 28.6967 125.748 29.1167 125.415 29.65C125.128 29.1233 124.722 28.7067 124.195 28.4C123.668 28.0867 123.025 27.93 122.265 27.93C121.618 27.93 121.022 28.06 120.475 28.32C119.935 28.5733 119.488 28.9233 119.135 29.37V28.2H117.005V39ZM139.748 39.3C140.788 39.3 141.738 39.0333 142.598 38.5C143.464 37.96 144.104 37.2 144.518 36.22L142.138 35.5C141.658 36.5267 140.814 37.04 139.608 37.04C138.788 37.04 138.141 36.8033 137.668 36.33C137.194 35.85 136.911 35.1633 136.818 34.27H144.638C144.731 32.97 144.588 31.8433 144.208 30.89C143.828 29.9367 143.244 29.2 142.458 28.68C141.678 28.16 140.728 27.9 139.608 27.9C138.548 27.9 137.614 28.14 136.808 28.62C136.001 29.0933 135.371 29.7667 134.918 30.64C134.464 31.5133 134.238 32.54 134.238 33.72C134.238 34.8133 134.468 35.78 134.928 36.62C135.394 37.46 136.041 38.1167 136.868 38.59C137.694 39.0633 138.654 39.3 139.748 39.3ZM139.708 30.01C140.454 30.01 141.028 30.2067 141.428 30.6C141.834 30.9867 142.091 31.6033 142.198 32.45H136.878C137.164 30.8233 138.108 30.01 139.708 30.01ZM146.869 39H149.289V33.51C149.289 32.8833 149.402 32.3267 149.629 31.84C149.862 31.3533 150.225 30.9767 150.719 30.71C151.052 30.5167 151.425 30.4033 151.839 30.37C152.252 30.33 152.622 30.3567 152.949 30.45V28.2C152.462 28.1267 151.962 28.1367 151.449 28.23C150.935 28.3167 150.479 28.4967 150.079 28.77C149.852 28.91 149.649 29.08 149.469 29.28C149.289 29.4733 149.132 29.69 148.999 29.93V28.2H146.869V39ZM159.352 39.3C160.558 39.3 161.578 39.0067 162.412 38.42C163.245 37.8267 163.828 36.98 164.162 35.88L161.702 35.33C161.515 35.8833 161.235 36.3067 160.862 36.6C160.495 36.8933 159.992 37.04 159.352 37.04C158.445 37.04 157.762 36.7233 157.302 36.09C156.848 35.4567 156.618 34.6267 156.612 33.6C156.618 32.6067 156.838 31.7867 157.272 31.14C157.712 30.4867 158.405 30.16 159.352 30.16C159.905 30.16 160.398 30.3233 160.832 30.65C161.265 30.97 161.575 31.42 161.762 32L164.162 31.35C163.908 30.2833 163.355 29.4433 162.502 28.83C161.648 28.21 160.608 27.9 159.382 27.9C158.288 27.9 157.345 28.1467 156.552 28.64C155.758 29.1267 155.145 29.8 154.712 30.66C154.285 31.5133 154.068 32.4933 154.062 33.6C154.068 34.6867 154.278 35.66 154.692 36.52C155.112 37.38 155.715 38.06 156.502 38.56C157.288 39.0533 158.238 39.3 159.352 39.3ZM166.146 39H168.586V33.45C168.586 32.5767 168.709 31.9033 168.956 31.43C169.209 30.95 169.529 30.62 169.916 30.44C170.309 30.2533 170.709 30.16 171.116 30.16C171.689 30.16 172.146 30.2867 172.486 30.54C172.826 30.7867 173.076 31.1033 173.236 31.49C173.402 31.87 173.509 32.2667 173.556 32.68C173.609 33.0933 173.636 33.4667 173.636 33.8V39H176.076V32.97C176.076 32.7167 176.052 32.38 176.006 31.96C175.966 31.54 175.872 31.0967 175.726 30.63C175.579 30.1633 175.352 29.7233 175.046 29.31C174.739 28.89 174.322 28.55 173.796 28.29C173.276 28.0233 172.619 27.89 171.826 27.89C171.046 27.89 170.359 28.0267 169.766 28.3C169.179 28.5667 168.689 28.9333 168.296 29.4V24.6H166.146V39ZM181.705 39.3C182.565 39.3 183.295 39.16 183.895 38.88C184.502 38.5933 185.035 38.15 185.495 37.55V39H187.605V32.37C187.605 31.9033 187.585 31.4733 187.545 31.08C187.505 30.68 187.389 30.29 187.195 29.91C186.842 29.1967 186.299 28.6833 185.565 28.37C184.839 28.0567 183.995 27.9 183.035 27.9C181.769 27.9 180.759 28.1767 180.005 28.73C179.252 29.2833 178.742 30.0167 178.475 30.93L180.675 31.62C180.855 31.0667 181.172 30.6767 181.625 30.45C182.079 30.2233 182.549 30.11 183.035 30.11C183.769 30.11 184.309 30.26 184.655 30.56C185.002 30.8533 185.199 31.31 185.245 31.93C184.299 32.07 183.419 32.2067 182.605 32.34C181.799 32.4667 181.112 32.6233 180.545 32.81C179.692 33.1033 179.069 33.52 178.675 34.06C178.282 34.5933 178.085 35.2533 178.085 36.04C178.085 36.6333 178.222 37.1767 178.495 37.67C178.775 38.1633 179.185 38.56 179.725 38.86C180.265 39.1533 180.925 39.3 181.705 39.3ZM182.185 37.38C181.619 37.38 181.185 37.25 180.885 36.99C180.592 36.73 180.445 36.4033 180.445 36.01C180.445 35.6567 180.559 35.37 180.785 35.15C181.019 34.93 181.342 34.7433 181.755 34.59C182.135 34.4633 182.592 34.3533 183.125 34.26C183.659 34.16 184.355 34.0433 185.215 33.91C185.209 34.1633 185.192 34.4467 185.165 34.76C185.139 35.0667 185.075 35.3433 184.975 35.59C184.895 35.8367 184.739 36.1 184.505 36.38C184.279 36.66 183.972 36.8967 183.585 37.09C183.199 37.2833 182.732 37.38 182.185 37.38ZM190.189 39H192.629V33.45C192.629 32.5767 192.752 31.9033 192.999 31.43C193.252 30.95 193.572 30.62 193.959 30.44C194.352 30.2533 194.752 30.16 195.159 30.16C195.732 30.16 196.189 30.2867 196.529 30.54C196.869 30.7867 197.119 31.1033 197.279 31.49C197.445 31.87 197.552 32.2667 197.599 32.68C197.652 33.0933 197.679 33.4667 197.679 33.8V39H200.119V32.97C200.119 32.7167 200.095 32.38 200.049 31.96C200.009 31.54 199.915 31.0967 199.769 30.63C199.622 30.1633 199.395 29.7233 199.089 29.31C198.782 28.89 198.365 28.55 197.839 28.29C197.319 28.0233 196.662 27.89 195.869 27.89C195.089 27.89 194.402 28.0267 193.809 28.3C193.222 28.5667 192.732 28.9333 192.339 29.4V28.2H190.189V39ZM209.058 39V36.98C208.385 37.08 207.785 37.1067 207.258 37.06C206.731 37.0133 206.348 36.79 206.108 36.39C205.981 36.1833 205.911 35.9167 205.898 35.59C205.891 35.2567 205.888 34.8767 205.888 34.45V30.09H209.058V28.2H205.888V25.2H203.488V28.2H201.528V30.09H203.488V34.59C203.488 35.21 203.495 35.7633 203.508 36.25C203.521 36.73 203.651 37.2033 203.898 37.67C204.178 38.1833 204.588 38.56 205.128 38.8C205.668 39.0333 206.278 39.1567 206.958 39.17C207.645 39.19 208.345 39.1333 209.058 39Z" fill="white"/>
</svg>
