<svg width="121" height="45" viewBox="0 0 121 45" fill="none" xmlns="http://www.w3.org/2000/svg">
<rect width="121" height="45" rx="8" fill="black"/>
<path d="M26.8798 28.24C27.9945 28.24 28.9518 28 29.7518 27.52C30.5518 27.0347 31.1651 26.3707 31.5918 25.528C32.0238 24.6853 32.2398 23.72 32.2398 22.632C32.2398 22.6 32.2371 22.5013 32.2318 22.336C32.2265 22.1707 32.2185 22.0453 32.2078 21.96H28.1278V23.472H30.1598C30.0105 24.464 29.6638 25.208 29.1198 25.704C28.5758 26.1947 27.8691 26.4347 26.9998 26.424C25.8425 26.408 24.9731 26.0213 24.3918 25.264C23.8105 24.5067 23.5225 23.4987 23.5278 22.24C23.5331 21.3973 23.6638 20.6613 23.9198 20.032C24.1758 19.4027 24.5598 18.9147 25.0718 18.568C25.5838 18.2213 26.2265 18.0533 26.9998 18.064C27.7625 18.0693 28.3918 18.2747 28.8878 18.68C29.3891 19.0853 29.7491 19.6293 29.9678 20.312L31.9358 20C31.6425 18.816 31.0798 17.8933 30.2478 17.232C29.4211 16.5707 28.2985 16.24 26.8798 16.24C25.8558 16.24 24.9358 16.4773 24.1198 16.952C23.3091 17.4267 22.6665 18.112 22.1918 19.008C21.7225 19.904 21.4878 20.9813 21.4878 22.24C21.4878 23.52 21.7278 24.608 22.2078 25.504C22.6931 26.3947 23.3438 27.0747 24.1598 27.544C24.9758 28.008 25.8825 28.24 26.8798 28.24ZM33.8466 28H35.7826V23.608C35.7826 23.1067 35.8732 22.6613 36.0546 22.272C36.2412 21.8827 36.5319 21.5813 36.9266 21.368C37.1932 21.2133 37.4919 21.1227 37.8226 21.096C38.1532 21.064 38.4492 21.0853 38.7106 21.16V19.36C38.3212 19.3013 37.9212 19.3093 37.5106 19.384C37.0999 19.4533 36.7346 19.5973 36.4146 19.816C36.2332 19.928 36.0706 20.064 35.9266 20.224C35.7826 20.3787 35.6572 20.552 35.5506 20.744V19.36H33.8466V28ZM43.8969 28.24C44.7609 28.24 45.5156 28.048 46.1609 27.664C46.8063 27.2747 47.3076 26.7387 47.6649 26.056C48.0276 25.368 48.2089 24.576 48.2089 23.68C48.2089 22.7893 48.0303 22.0027 47.6729 21.32C47.3156 20.632 46.8143 20.0933 46.1689 19.704C45.5236 19.3147 44.7663 19.12 43.8969 19.12C43.0489 19.12 42.3023 19.312 41.6569 19.696C41.0116 20.08 40.5076 20.6133 40.1449 21.296C39.7823 21.9787 39.6009 22.7733 39.6009 23.68C39.6009 24.5707 39.7769 25.36 40.1289 26.048C40.4863 26.7307 40.9876 27.2667 41.6329 27.656C42.2783 28.0453 43.0329 28.24 43.8969 28.24ZM43.8969 26.432C43.1556 26.432 42.5929 26.184 42.2089 25.688C41.8303 25.1867 41.6409 24.5173 41.6409 23.68C41.6409 22.864 41.8223 22.2027 42.1849 21.696C42.5529 21.184 43.1236 20.928 43.8969 20.928C44.6543 20.928 45.2223 21.1787 45.6009 21.68C45.9796 22.176 46.1689 22.8427 46.1689 23.68C46.1689 24.4907 45.9796 25.152 45.6009 25.664C45.2276 26.176 44.6596 26.432 43.8969 26.432ZM53.2116 28.248C53.8356 28.248 54.3822 28.1413 54.8516 27.928C55.3262 27.7093 55.7209 27.4133 56.0356 27.04V28H57.7396V19.36H55.8036V23.8C55.8036 24.4987 55.7022 25.04 55.4996 25.424C55.3022 25.8027 55.0489 26.0667 54.7396 26.216C54.4302 26.36 54.1102 26.432 53.7796 26.432C53.3209 26.432 52.9556 26.3333 52.6836 26.136C52.4116 25.9333 52.2089 25.68 52.0756 25.376C51.9476 25.0667 51.8622 24.7467 51.8196 24.416C51.7822 24.0853 51.7636 23.7867 51.7636 23.52V19.36H49.8116V24.184C49.8116 24.3867 49.8276 24.656 49.8596 24.992C49.8969 25.328 49.9742 25.6827 50.0916 26.056C50.2089 26.4293 50.3902 26.784 50.6356 27.12C50.8809 27.4507 51.2116 27.7227 51.6276 27.936C52.0489 28.144 52.5769 28.248 53.2116 28.248ZM59.9712 31.84H61.9152V27.56C62.2085 27.7733 62.5392 27.9387 62.9072 28.056C63.2805 28.1787 63.6912 28.24 64.1392 28.24C64.9392 28.24 65.6325 28.04 66.2192 27.64C66.8112 27.24 67.2699 26.696 67.5952 26.008C67.9205 25.32 68.0832 24.544 68.0832 23.68C68.0832 22.8053 67.9179 22.024 67.5872 21.336C67.2619 20.648 66.7979 20.1067 66.1952 19.712C65.5925 19.3173 64.8832 19.12 64.0672 19.12C63.5765 19.12 63.1312 19.1947 62.7312 19.344C62.3312 19.4933 61.9792 19.7067 61.6752 19.984V19.36H59.9712V31.84ZM63.8432 26.512C63.0699 26.512 62.5152 26.2507 62.1792 25.728C61.8432 25.2 61.6752 24.5173 61.6752 23.68C61.6752 22.8373 61.8405 22.1547 62.1712 21.632C62.5072 21.1093 63.0432 20.848 63.7792 20.848C64.2965 20.848 64.7205 20.976 65.0512 21.232C65.3872 21.4827 65.6352 21.824 65.7952 22.256C65.9605 22.6827 66.0432 23.1573 66.0432 23.68C66.0432 24.208 65.9632 24.6853 65.8032 25.112C65.6485 25.5387 65.4085 25.88 65.0832 26.136C64.7579 26.3867 64.3445 26.512 63.8432 26.512ZM73.0497 28H78.0817C79.2177 28 80.079 27.6853 80.6657 27.056C81.2524 26.4267 81.5457 25.6 81.5457 24.576C81.5457 23.9947 81.4017 23.4667 81.1137 22.992C80.831 22.5173 80.4124 22.1627 79.8577 21.928C80.215 21.7147 80.495 21.4133 80.6977 21.024C80.9057 20.6293 81.0097 20.1707 81.0097 19.648C81.0097 19.1307 80.887 18.6293 80.6417 18.144C80.4017 17.6587 80.031 17.2613 79.5297 16.952C79.0337 16.6373 78.3964 16.48 77.6177 16.48H73.0497V28ZM75.0017 21.08V18.28H77.5937C78.0524 18.28 78.4097 18.4133 78.6657 18.68C78.9217 18.9467 79.0497 19.28 79.0497 19.68C79.0497 20.1387 78.9084 20.488 78.6257 20.728C78.3484 20.9627 78.0044 21.08 77.5937 21.08H75.0017ZM75.0017 26.184V22.88H77.8977C78.4364 22.88 78.855 23.0373 79.1537 23.352C79.4524 23.6667 79.6017 24.056 79.6017 24.52C79.6017 25.032 79.4337 25.4373 79.0977 25.736C78.767 26.0347 78.3484 26.184 77.8417 26.184H75.0017ZM86.3834 28.248C87.0074 28.248 87.5541 28.1413 88.0234 27.928C88.4981 27.7093 88.8928 27.4133 89.2074 27.04V28H90.9114V19.36H88.9754V23.8C88.9754 24.4987 88.8741 25.04 88.6714 25.424C88.4741 25.8027 88.2208 26.0667 87.9114 26.216C87.6021 26.36 87.2821 26.432 86.9514 26.432C86.4928 26.432 86.1274 26.3333 85.8554 26.136C85.5834 25.9333 85.3808 25.68 85.2474 25.376C85.1194 25.0667 85.0341 24.7467 84.9914 24.416C84.9541 24.0853 84.9354 23.7867 84.9354 23.52V19.36H82.9834V24.184C82.9834 24.3867 82.9994 24.656 83.0314 24.992C83.0688 25.328 83.1461 25.6827 83.2634 26.056C83.3808 26.4293 83.5621 26.784 83.8074 27.12C84.0528 27.4507 84.3834 27.7227 84.7994 27.936C85.2208 28.144 85.7488 28.248 86.3834 28.248ZM94.2951 31.84H96.1031L100.919 19.36H98.9911L96.6471 25.544L94.2311 19.36H92.2231L95.7191 27.936L94.2951 31.84Z" fill="white"/>
</svg>
