<svg width="58" height="49" viewBox="0 0 58 49" fill="none" xmlns="http://www.w3.org/2000/svg">
<g opacity="0.1" clip-path="url(#clip0)">
<path fill-rule="evenodd" clip-rule="evenodd" d="M57.7456 7.65293C49.0966 11.9046 44.7722 16.9002 44.7722 22.6399C48.4587 23.0651 51.507 24.5708 53.9174 27.1573C56.3278 29.7437 57.533 32.7375 57.533 36.1388C57.533 39.7527 56.3632 42.7997 54.0238 45.2798C51.6843 47.76 48.7422 49 45.1976 49C41.2275 49 37.7893 47.3879 34.8826 44.1638C31.976 40.9396 30.5227 37.0246 30.5227 32.4187C30.5227 18.6008 38.25 7.79469 53.7047 0L57.7456 7.65293ZM27.2229 7.65293C18.5031 11.9046 14.1432 16.9002 14.1432 22.6399C17.9005 23.0651 20.9843 24.5708 23.3947 27.1573C25.8051 29.7437 27.0103 32.7375 27.0103 36.1388C27.0103 39.7527 25.8228 42.7997 23.4479 45.2798C21.073 47.76 18.1132 49 14.5685 49C10.5985 49 7.17794 47.3879 4.30676 44.1638C1.43557 40.9396 0 37.0246 0 32.4187C0 18.6008 7.69182 7.79469 23.0757 0L27.2229 7.65293Z" fill="white"/>
</g>
<defs>
<clipPath id="clip0">
<rect width="58" height="49" fill="white"/>
</clipPath>
</defs>
</svg>
