<svg width="240" height="62" viewBox="0 0 240 62" fill="none" xmlns="http://www.w3.org/2000/svg">
<rect width="240" height="62" rx="8" fill="#FFC700"/>
<path d="M70.7775 39.3C72.1708 39.3 73.3675 39 74.3675 38.4C75.3675 37.7933 76.1342 36.9633 76.6675 35.91C77.2075 34.8567 77.4775 33.65 77.4775 32.29C77.4775 32.25 77.4742 32.1267 77.4675 31.92C77.4608 31.7133 77.4508 31.5567 77.4375 31.45H72.3375V33.34H74.8775C74.6908 34.58 74.2575 35.51 73.5775 36.13C72.8975 36.7433 72.0142 37.0433 70.9275 37.03C69.4808 37.01 68.3942 36.5267 67.6675 35.58C66.9408 34.6333 66.5808 33.3733 66.5875 31.8C66.5942 30.7467 66.7575 29.8267 67.0775 29.04C67.3975 28.2533 67.8775 27.6433 68.5175 27.21C69.1575 26.7767 69.9608 26.5667 70.9275 26.58C71.8808 26.5867 72.6675 26.8433 73.2875 27.35C73.9142 27.8567 74.3642 28.5367 74.6375 29.39L77.0975 29C76.7308 27.52 76.0275 26.3667 74.9875 25.54C73.9542 24.7133 72.5508 24.3 70.7775 24.3C69.4975 24.3 68.3475 24.5967 67.3275 25.19C66.3142 25.7833 65.5108 26.64 64.9175 27.76C64.3308 28.88 64.0375 30.2267 64.0375 31.8C64.0375 33.4 64.3375 34.76 64.9375 35.88C65.5442 36.9933 66.3575 37.8433 67.3775 38.43C68.3975 39.01 69.5308 39.3 70.7775 39.3ZM84.396 39.3C85.436 39.3 86.386 39.0333 87.246 38.5C88.1126 37.96 88.7526 37.2 89.166 36.22L86.786 35.5C86.306 36.5267 85.4626 37.04 84.256 37.04C83.436 37.04 82.7893 36.8033 82.316 36.33C81.8426 35.85 81.5593 35.1633 81.466 34.27H89.286C89.3793 32.97 89.236 31.8433 88.856 30.89C88.476 29.9367 87.8926 29.2 87.106 28.68C86.326 28.16 85.376 27.9 84.256 27.9C83.196 27.9 82.2626 28.14 81.456 28.62C80.6493 29.0933 80.0193 29.7667 79.566 30.64C79.1126 31.5133 78.886 32.54 78.886 33.72C78.886 34.8133 79.116 35.78 79.576 36.62C80.0426 37.46 80.6893 38.1167 81.516 38.59C82.3426 39.0633 83.3026 39.3 84.396 39.3ZM84.356 30.01C85.1026 30.01 85.676 30.2067 86.076 30.6C86.4826 30.9867 86.7393 31.6033 86.846 32.45H81.526C81.8126 30.8233 82.756 30.01 84.356 30.01ZM97.8472 39V36.98C97.1739 37.08 96.5739 37.1067 96.0472 37.06C95.5205 37.0133 95.1372 36.79 94.8972 36.39C94.7705 36.1833 94.7005 35.9167 94.6872 35.59C94.6805 35.2567 94.6772 34.8767 94.6772 34.45V30.09H97.8472V28.2H94.6772V25.2H92.2772V28.2H90.3172V30.09H92.2772V34.59C92.2772 35.21 92.2839 35.7633 92.2972 36.25C92.3105 36.73 92.4405 37.2033 92.6872 37.67C92.9672 38.1833 93.3772 38.56 93.9172 38.8C94.4572 39.0333 95.0672 39.1567 95.7472 39.17C96.4339 39.19 97.1339 39.1333 97.8472 39ZM109.503 39.3C110.49 39.3 111.413 39.1333 112.273 38.8C113.133 38.4667 113.827 37.9667 114.353 37.3C114.887 36.6333 115.153 35.8033 115.153 34.81C115.153 34.0967 115.02 33.5067 114.753 33.04C114.493 32.5667 114.157 32.1867 113.743 31.9C113.337 31.6133 112.913 31.39 112.473 31.23C112.04 31.07 111.647 30.9433 111.293 30.85L108.713 30.13C108.393 30.0433 108.073 29.9367 107.753 29.81C107.433 29.6767 107.167 29.5 106.953 29.28C106.74 29.0533 106.633 28.7633 106.633 28.41C106.633 28.0367 106.757 27.71 107.003 27.43C107.257 27.15 107.587 26.9333 107.993 26.78C108.407 26.6267 108.853 26.5567 109.333 26.57C110.073 26.59 110.74 26.8067 111.333 27.22C111.927 27.6333 112.3 28.22 112.453 28.98L115.043 28.53C114.723 27.1967 114.067 26.1667 113.073 25.44C112.08 24.7067 110.843 24.3333 109.363 24.32C108.39 24.3133 107.503 24.47 106.703 24.79C105.91 25.1033 105.277 25.5733 104.803 26.2C104.337 26.8267 104.103 27.6033 104.103 28.53C104.103 29.1633 104.207 29.6967 104.413 30.13C104.627 30.5567 104.897 30.9067 105.223 31.18C105.557 31.4533 105.907 31.67 106.273 31.83C106.647 31.99 106.993 32.1167 107.313 32.21L111.033 33.31C112.1 33.63 112.633 34.1833 112.633 34.97C112.633 35.41 112.49 35.7867 112.203 36.1C111.923 36.4067 111.557 36.64 111.103 36.8C110.65 36.96 110.167 37.04 109.653 37.04C108.787 37.04 108.02 36.8067 107.353 36.34C106.693 35.8733 106.257 35.2133 106.043 34.36L103.543 34.74C103.697 35.68 104.043 36.4933 104.583 37.18C105.13 37.86 105.823 38.3833 106.663 38.75C107.51 39.1167 108.457 39.3 109.503 39.3ZM123.648 39V36.98C122.975 37.08 122.375 37.1067 121.848 37.06C121.321 37.0133 120.938 36.79 120.698 36.39C120.571 36.1833 120.501 35.9167 120.488 35.59C120.481 35.2567 120.478 34.8767 120.478 34.45V30.09H123.648V28.2H120.478V25.2H118.078V28.2H116.118V30.09H118.078V34.59C118.078 35.21 118.085 35.7633 118.098 36.25C118.111 36.73 118.241 37.2033 118.488 37.67C118.768 38.1833 119.178 38.56 119.718 38.8C120.258 39.0333 120.868 39.1567 121.548 39.17C122.235 39.19 122.935 39.1333 123.648 39ZM128.99 39.3C129.85 39.3 130.58 39.16 131.18 38.88C131.787 38.5933 132.32 38.15 132.78 37.55V39H134.89V32.37C134.89 31.9033 134.87 31.4733 134.83 31.08C134.79 30.68 134.674 30.29 134.48 29.91C134.127 29.1967 133.584 28.6833 132.85 28.37C132.124 28.0567 131.28 27.9 130.32 27.9C129.054 27.9 128.044 28.1767 127.29 28.73C126.537 29.2833 126.027 30.0167 125.76 30.93L127.96 31.62C128.14 31.0667 128.457 30.6767 128.91 30.45C129.364 30.2233 129.834 30.11 130.32 30.11C131.054 30.11 131.594 30.26 131.94 30.56C132.287 30.8533 132.484 31.31 132.53 31.93C131.584 32.07 130.704 32.2067 129.89 32.34C129.084 32.4667 128.397 32.6233 127.83 32.81C126.977 33.1033 126.354 33.52 125.96 34.06C125.567 34.5933 125.37 35.2533 125.37 36.04C125.37 36.6333 125.507 37.1767 125.78 37.67C126.06 38.1633 126.47 38.56 127.01 38.86C127.55 39.1533 128.21 39.3 128.99 39.3ZM129.47 37.38C128.904 37.38 128.47 37.25 128.17 36.99C127.877 36.73 127.73 36.4033 127.73 36.01C127.73 35.6567 127.844 35.37 128.07 35.15C128.304 34.93 128.627 34.7433 129.04 34.59C129.42 34.4633 129.877 34.3533 130.41 34.26C130.944 34.16 131.64 34.0433 132.5 33.91C132.494 34.1633 132.477 34.4467 132.45 34.76C132.424 35.0667 132.36 35.3433 132.26 35.59C132.18 35.8367 132.024 36.1 131.79 36.38C131.564 36.66 131.257 36.8967 130.87 37.09C130.484 37.2833 130.017 37.38 129.47 37.38ZM137.494 39H139.914V33.51C139.914 32.8833 140.027 32.3267 140.254 31.84C140.487 31.3533 140.85 30.9767 141.344 30.71C141.677 30.5167 142.05 30.4033 142.464 30.37C142.877 30.33 143.247 30.3567 143.574 30.45V28.2C143.087 28.1267 142.587 28.1367 142.074 28.23C141.56 28.3167 141.104 28.4967 140.704 28.77C140.477 28.91 140.274 29.08 140.094 29.28C139.914 29.4733 139.757 29.69 139.624 29.93V28.2H137.494V39ZM151.812 39V36.98C151.139 37.08 150.539 37.1067 150.012 37.06C149.485 37.0133 149.102 36.79 148.862 36.39C148.735 36.1833 148.665 35.9167 148.652 35.59C148.645 35.2567 148.642 34.8767 148.642 34.45V30.09H151.812V28.2H148.642V25.2H146.242V28.2H144.282V30.09H146.242V34.59C146.242 35.21 146.249 35.7633 146.262 36.25C146.275 36.73 146.405 37.2033 146.652 37.67C146.932 38.1833 147.342 38.56 147.882 38.8C148.422 39.0333 149.032 39.1567 149.712 39.17C150.399 39.19 151.099 39.1333 151.812 39ZM158.498 39.3C159.538 39.3 160.488 39.0333 161.348 38.5C162.214 37.96 162.854 37.2 163.268 36.22L160.888 35.5C160.408 36.5267 159.564 37.04 158.358 37.04C157.538 37.04 156.891 36.8033 156.418 36.33C155.944 35.85 155.661 35.1633 155.568 34.27H163.388C163.481 32.97 163.338 31.8433 162.958 30.89C162.578 29.9367 161.994 29.2 161.208 28.68C160.428 28.16 159.478 27.9 158.358 27.9C157.298 27.9 156.364 28.14 155.558 28.62C154.751 29.0933 154.121 29.7667 153.668 30.64C153.214 31.5133 152.988 32.54 152.988 33.72C152.988 34.8133 153.218 35.78 153.678 36.62C154.144 37.46 154.791 38.1167 155.618 38.59C156.444 39.0633 157.404 39.3 158.498 39.3ZM158.458 30.01C159.204 30.01 159.778 30.2067 160.178 30.6C160.584 30.9867 160.841 31.6033 160.948 32.45H155.628C155.914 30.8233 156.858 30.01 158.458 30.01ZM169.949 39.3C170.589 39.3 171.165 39.2033 171.679 39.01C172.192 38.8167 172.642 38.5467 173.029 38.2V39H175.159V24.6H172.729V28.73C172.369 28.4633 171.965 28.26 171.519 28.12C171.072 27.9733 170.579 27.9 170.039 27.9C169.019 27.9 168.132 28.1467 167.379 28.64C166.632 29.1333 166.052 29.81 165.639 30.67C165.225 31.53 165.019 32.5067 165.019 33.6C165.019 34.68 165.222 35.65 165.629 36.51C166.035 37.37 166.609 38.05 167.349 38.55C168.089 39.05 168.955 39.3 169.949 39.3ZM170.319 37.14C169.692 37.14 169.175 36.9833 168.769 36.67C168.362 36.35 168.059 35.9233 167.859 35.39C167.665 34.8567 167.569 34.26 167.569 33.6C167.569 32.9467 167.669 32.3533 167.869 31.82C168.075 31.28 168.385 30.8533 168.799 30.54C169.219 30.22 169.752 30.06 170.399 30.06C171.319 30.06 171.985 30.3867 172.399 31.04C172.819 31.6933 173.029 32.5467 173.029 33.6C173.029 34.6467 172.819 35.5 172.399 36.16C171.985 36.8133 171.292 37.14 170.319 37.14Z" fill="#0B0D17"/>
</svg>
