<svg width="36" height="36" viewBox="0 0 36 36" fill="none" xmlns="http://www.w3.org/2000/svg">
<path opacity="0.1" fill-rule="evenodd" clip-rule="evenodd" d="M0 18C0 8.05888 8.05888 0 18 0C27.9411 0 36 8.05888 36 18C36 27.9411 27.9411 36 18 36C8.05888 36 0 27.9411 0 18Z" fill="white"/>
<path fill-rule="evenodd" clip-rule="evenodd" d="M27.6 17.9868C27.6 18.6361 27.5339 19.2844 27.4041 19.9164C27.2775 20.5333 27.09 21.139 26.8444 21.7181C26.6044 22.2868 26.3067 22.8349 25.9589 23.3461C25.6162 23.854 25.2215 24.3305 24.7879 24.7649C24.3533 25.1974 23.8752 25.5911 23.3675 25.9352C22.8546 26.2806 22.3057 26.5778 21.7366 26.8189C21.1568 27.0633 20.5497 27.2505 19.9332 27.3769C19.3004 27.507 18.6497 27.5735 17.9996 27.5735C17.3489 27.5735 16.6983 27.507 16.0664 27.3769C15.449 27.2505 14.8419 27.0633 14.2625 26.8189C13.6934 26.5778 13.144 26.2806 12.6312 25.9352C12.1235 25.5911 11.6453 25.1974 11.2117 24.7649C10.7777 24.3305 10.3829 23.854 10.0398 23.3461C9.69383 22.8349 9.39567 22.2868 9.15474 21.7181C8.90907 21.139 8.72112 20.5333 8.59408 19.9164C8.46565 19.2844 8.4 18.6361 8.4 17.9868C8.4 17.3371 8.46561 16.6874 8.59412 16.0568C8.72116 15.4399 8.90911 14.8332 9.15478 14.2551C9.39571 13.6859 9.69387 13.1373 10.0398 12.6262C10.383 12.1178 10.7777 11.6422 11.2118 11.2073C11.6454 10.7748 12.1235 10.3821 12.6312 10.0385C13.144 9.69162 13.6935 9.39442 14.2625 9.15286C14.842 8.908 15.449 8.72031 16.0664 8.59488C16.6983 8.4657 17.349 8.40015 17.9996 8.40015C18.6498 8.40015 19.3004 8.4657 19.9333 8.59488C20.5497 8.72035 21.1568 8.90803 21.7367 9.15286C22.3057 9.39438 22.8547 9.69162 23.3675 10.0385C23.8752 10.3821 24.3534 10.7748 24.7879 11.2073C25.2215 11.6422 25.6162 12.1178 25.9589 12.6262C26.3067 13.1373 26.6044 13.686 26.8444 14.2551C27.09 14.8332 27.2775 15.4399 27.4041 16.0568C27.5339 16.6874 27.6 17.3371 27.6 17.9868ZM14.5015 10.5819C12.2153 11.66 10.509 13.7636 9.9769 16.2989C10.193 16.3007 13.6095 16.3438 17.5457 15.2994C16.1268 12.782 14.6108 10.7276 14.5015 10.5819ZM18.225 16.5601C14.0037 17.822 9.953 17.7312 9.80769 17.7256C9.80532 17.8136 9.80112 17.8988 9.80112 17.9868C9.80112 20.09 10.5957 22.0073 11.9017 23.457C11.8989 23.4528 14.1425 19.4782 18.5667 18.0496C18.6736 18.014 18.7824 17.9821 18.8902 17.9513C18.6844 17.486 18.4598 17.0198 18.225 16.5601ZM23.4139 11.8426C21.9705 10.5716 20.0753 9.80073 17.9995 9.80073C17.3334 9.80073 16.687 9.88125 16.0677 10.0301C16.1905 10.1949 17.7305 12.2348 19.1326 14.8056C22.226 13.6475 23.3937 11.8725 23.4139 11.8426ZM19.449 19.3078C19.4308 19.3138 19.4125 19.3191 19.3947 19.3256C14.5575 21.0095 12.9778 24.403 12.9607 24.44C14.3525 25.5209 16.0982 26.1729 17.9996 26.1729C19.1349 26.1729 20.2164 25.9421 21.2003 25.5242C21.0789 24.8089 20.6027 22.3018 19.449 19.3078ZM22.5809 24.7761C24.4217 23.5357 25.7291 21.5659 26.0938 19.2844C25.9251 19.2301 23.6314 18.505 20.9851 18.9286C22.0605 21.8795 22.4974 24.2828 22.5809 24.7761ZM19.7636 16.0255C19.9539 16.4159 20.1381 16.8132 20.3083 17.2126C20.3688 17.3558 20.4278 17.4963 20.4855 17.6367C23.3019 17.2828 26.0766 17.8782 26.1952 17.9025C26.1764 15.9618 25.4812 14.1807 24.3309 12.7862C24.3154 12.8082 23.0005 14.7054 19.7636 16.0255Z" fill="white"/>
</svg>
