<svg width="36" height="36" viewBox="0 0 36 36" fill="none" xmlns="http://www.w3.org/2000/svg">
<path opacity="0.1" fill-rule="evenodd" clip-rule="evenodd" d="M0 18C0 8.05888 8.05888 0 18 0C27.9411 0 36 8.05888 36 18C36 27.9411 27.9411 36 18 36C8.05888 36 0 27.9411 0 18Z" fill="white"/>
<path fill-rule="evenodd" clip-rule="evenodd" d="M18.0009 8.40015C15.3937 8.40015 15.0665 8.41155 14.0425 8.45815C13.0204 8.50495 12.3228 8.66675 11.7124 8.90415C11.081 9.14935 10.5454 9.47736 10.0118 10.0112C9.47781 10.5448 9.1498 11.0804 8.9038 11.7116C8.6658 12.3222 8.50379 13.02 8.45779 14.0416C8.41199 15.0656 8.39999 15.393 8.39999 18.0002C8.39999 20.6075 8.41159 20.9337 8.45799 21.9577C8.50499 22.9797 8.6668 23.6773 8.904 24.2877C9.1494 24.9191 9.47741 25.4547 10.0112 25.9883C10.5446 26.5223 11.0802 26.8511 11.7112 27.0963C12.322 27.3337 13.0198 27.4955 14.0417 27.5423C15.0657 27.5889 15.3927 27.6003 17.9997 27.6003C20.6071 27.6003 20.9333 27.5889 21.9573 27.5423C22.9793 27.4955 23.6778 27.3337 24.2886 27.0963C24.9198 26.8511 25.4546 26.5223 25.988 25.9883C26.522 25.4547 26.85 24.9191 27.096 24.2879C27.332 23.6773 27.494 22.9795 27.542 21.9579C27.588 20.9339 27.6 20.6075 27.6 18.0002C27.6 15.393 27.588 15.0658 27.542 14.0418C27.494 13.0198 27.332 12.3222 27.096 11.7118C26.85 11.0804 26.522 10.5448 25.988 10.0112C25.454 9.47716 24.92 9.14915 24.288 8.90415C23.676 8.66675 22.9779 8.50495 21.9559 8.45815C20.9319 8.41155 20.6059 8.40015 17.9979 8.40015H18.0009ZM17.1396 10.1301C17.3952 10.1297 17.6804 10.1301 18.0009 10.1301C20.5641 10.1301 20.8679 10.1393 21.8801 10.1853C22.8161 10.2281 23.3241 10.3845 23.6625 10.5159C24.1105 10.6899 24.4299 10.8979 24.7657 11.2339C25.1017 11.57 25.3097 11.89 25.4841 12.338C25.6155 12.676 25.7721 13.184 25.8147 14.12C25.8607 15.132 25.8707 15.436 25.8707 17.998C25.8707 20.56 25.8607 20.864 25.8147 21.8761C25.7719 22.8121 25.6155 23.3201 25.4841 23.6581C25.3101 24.1061 25.1017 24.4251 24.7657 24.7609C24.4297 25.0969 24.1107 25.3049 23.6625 25.4789C23.3245 25.6109 22.8161 25.7669 21.8801 25.8097C20.8681 25.8557 20.5641 25.8657 18.0009 25.8657C15.4374 25.8657 15.1336 25.8557 14.1216 25.8097C13.1856 25.7665 12.6776 25.6101 12.339 25.4787C11.891 25.3047 11.571 25.0967 11.235 24.7607C10.899 24.4247 10.691 24.1055 10.5166 23.6573C10.3852 23.3193 10.2286 22.8113 10.186 21.8753C10.14 20.8633 10.1308 20.5592 10.1308 17.9956C10.1308 15.432 10.14 15.1296 10.186 14.1176C10.2288 13.1816 10.3852 12.6736 10.5166 12.3352C10.6906 11.8872 10.899 11.5672 11.235 11.2311C11.571 10.8951 11.891 10.6871 12.339 10.5127C12.6774 10.3807 13.1856 10.2247 14.1216 10.1817C15.0072 10.1417 15.3504 10.1297 17.1396 10.1277V10.1301ZM23.1253 11.7242C22.4893 11.7242 21.9733 12.2396 21.9733 12.8758C21.9733 13.5118 22.4893 14.0278 23.1253 14.0278C23.7613 14.0278 24.2773 13.5118 24.2773 12.8758C24.2773 12.2398 23.7613 11.7242 23.1253 11.7242ZM18.0009 13.0702C15.2783 13.0702 13.0709 15.2776 13.0709 18.0002C13.0709 20.7228 15.2783 22.9293 18.0009 22.9293C20.7235 22.9293 22.9302 20.7228 22.9302 18.0002C22.9302 15.2776 20.7235 13.0702 18.0009 13.0702ZM18.0009 14.8002C19.7681 14.8002 21.2009 16.2328 21.2009 18.0002C21.2009 19.7674 19.7681 21.2003 18.0009 21.2003C16.2335 21.2003 14.8008 19.7674 14.8008 18.0002C14.8008 16.2328 16.2335 14.8002 18.0009 14.8002Z" fill="white"/>
</svg>
