<svg width="36" height="36" viewBox="0 0 36 36" fill="none" xmlns="http://www.w3.org/2000/svg">
<path opacity="0.1" fill-rule="evenodd" clip-rule="evenodd" d="M0 18C0 8.05888 8.05888 0 18 0C27.9411 0 36 8.05888 36 18C36 27.9411 27.9411 36 18 36C8.05888 36 0 27.9411 0 18Z" fill="white"/>
<path fill-rule="evenodd" clip-rule="evenodd" d="M25.5012 11.8121C26.3274 12.0388 26.978 12.7068 27.1988 13.5551C27.6 15.0924 27.6 18.3001 27.6 18.3001C27.6 18.3001 27.6 21.5078 27.1988 23.0452C26.978 23.8935 26.3274 24.5615 25.5012 24.7883C24.004 25.2001 18 25.2001 18 25.2001C18 25.2001 11.996 25.2001 10.4987 24.7883C9.67255 24.5615 9.02194 23.8935 8.80114 23.0452C8.40001 21.5078 8.40001 18.3001 8.40001 18.3001C8.40001 18.3001 8.40001 15.0924 8.80114 13.5551C9.02194 12.7068 9.67255 12.0388 10.4987 11.8121C11.996 11.4001 18 11.4001 18 11.4001C18 11.4001 24.004 11.4001 25.5012 11.8121ZM16.2 15.6001V21.6001L21 18.6002L16.2 15.6001Z" fill="white"/>
</svg>
